<?xml version="1.0" standalone="no"?>
<!DOCTYPE svg PUBLIC "-//W3C//DTD SVG 1.1//EN" "http://www.w3.org/Graphics/SVG/1.1/DTD/svg11.dtd" >
<svg xmlns="http://www.w3.org/2000/svg">
<metadata></metadata>
<defs>
<font id="betecknalowercaseitalic" horiz-adv-x="423" >
<font-face units-per-em="2048" ascent="1638" descent="-410" />
<missing-glyph horiz-adv-x="718" />
<glyph horiz-adv-x="2048" />
<glyph horiz-adv-x="2048" />
<glyph unicode="&#xd;" horiz-adv-x="681" />
<glyph unicode=" "  horiz-adv-x="718" />
<glyph unicode="&#x09;" horiz-adv-x="718" />
<glyph unicode="&#xa0;" horiz-adv-x="718" />
<glyph unicode="!" horiz-adv-x="487" d="M6 123q10 55 53 87t88.5 33t77 -30t21.5 -86q-10 -59 -53 -93t-88.5 -34t-76 33t-22.5 90zM104 516l172 903h185l-170 -903h-187z" />
<glyph unicode="&#x22;" horiz-adv-x="696" d="M68 1432q10 53 51 83.5t85 31.5t75.5 -30.5t21.5 -91.5q-16 -49 -43 -96t-44 -70.5t-54 -64.5t-43 -51q-2 27 -29 141.5t-20 147.5zM424 1432q10 53 51 83.5t85 31.5t76 -30.5t21 -91.5q-16 -49 -42.5 -96t-44 -70.5t-54.5 -64.5t-43 -51q-2 27 -28.5 141.5t-20.5 147.5z " />
<glyph unicode="#" horiz-adv-x="931" d="M51 451l31 176h119l30 172h-118l32 186l119 -2l49 287h158l-49 -287h184l49 287h160l-49 -287h119l-33 -186h-119l-31 -170h119l-30 -178h-119l-54 -306h-159l53 306h-184l-54 -306h-157l53 306zM358 627h185l30 170l-184 2z" />
<glyph unicode="$" horiz-adv-x="1501" d="M258 227l107 142q41 -47 70.5 -73t83.5 -50.5t120 -24.5q94 0 135 21q51 27 119 112q72 90 47 178q-23 84 -117 125q-127 57 -135 60q-113 41 -166 96q-61 63 -75.5 136t5 151t69.5 141.5t129 106.5t173 49l-2 139h154l-49 -139q135 -8 217 -86l-107 -127q-78 84 -225 65 q-68 -8 -119 -53t-68.5 -101.5t17.5 -117.5q37 -68 123 -98l141 -52q53 -20 109 -69q51 -47 85 -117t23 -156q-12 -94 -71 -192q-121 -197 -342 -230l-7 -124h-153l35 118h-9q-70 2 -144.5 40t-109 69t-63.5 61z" />
<glyph unicode="%" horiz-adv-x="1146" d="M-12 227l1048 918l94 -121l-1048 -918zM139 967q12 70 54.5 119t95.5 68.5t111.5 17t103.5 -27t69.5 -73.5t14.5 -110q-12 -66 -54 -117t-96.5 -75t-113 -25t-104.5 21.5t-69.5 75t-11.5 126.5zM276 969q-8 -55 31 -79t85 -0.5t57 81.5q6 41 -16.5 62.5t-54.5 21.5 t-63 -23.5t-39 -62.5zM567 328q12 72 55.5 121t95.5 68.5t110.5 16t103.5 -28t70.5 -72.5t15.5 -111q-12 -66 -55 -116t-97.5 -75t-113 -26t-103.5 22t-69.5 75t-12.5 126zM705 330q-8 -55 30.5 -78t84.5 0.5t57 79.5q8 53 -30 74.5t-85 -1t-57 -75.5z" />
<glyph unicode="&#x26;" horiz-adv-x="1544" d="M72 307q0 70 10 128.5t41 115.5t64.5 101t77.5 86t81 71t74 53q-29 84 -20.5 163t43 138.5t72.5 99.5t77 68q82 55 197.5 66.5t208 -22.5t112.5 -97l-131 -107q-35 66 -147.5 73t-186.5 -60q-152 -149 4 -344l355 -455q106 162 124 324h170q-55 -270 -194 -453l196 -256 h-241l-92 117q-174 -137 -424 -162q-109 -8 -211.5 27.5t-175 121.5t-84.5 203zM260 348q12 -80 76.5 -138t135.5 -81t124 -16q152 14 278 125l-382 489q-111 -80 -179.5 -180.5t-52.5 -198.5z" />
<glyph unicode="'" horiz-adv-x="315" d="M55 1432q10 53 51 84.5t85.5 33.5t74 -28.5t19.5 -89.5q-12 -70 -65.5 -152t-104.5 -137q-80 166 -60 289z" />
<glyph unicode="(" horiz-adv-x="548" d="M20 303q2 23 62.5 366t64.5 359q51 203 180.5 345.5t305.5 213.5l-37 -211q-190 -121 -254 -342q-6 -16 -66.5 -362t-62.5 -369q-12 -225 129 -352l-39 -230q-147 78 -224 225.5t-59 356.5z" />
<glyph unicode=")" horiz-adv-x="604" d="M-55 -274l39 229q186 129 256 352q6 23 66.5 369t62.5 362q16 221 -133 344l36 211q152 -74 231 -215t58 -344q-2 -16 -62.5 -360t-64.5 -367q-57 -207 -187 -355.5t-302 -225.5z" />
<glyph unicode="*" horiz-adv-x="434" d="M55 1298l80 66q12 8 8 17.5t-14 7.5h-55l-2 41l16 36l72 -2q6 0 19.5 13.5t15.5 23.5l8 45l43 8l39 -8l-9 -45q-2 -12 8.5 -22.5t18.5 -10.5l66 -2l6 -36l-21 -41h-57q-25 0 -4 -25l55 -66l-26 -34l-39 -25l-70 82l-6 4l-12 -4l-97 -82l-30 25z" />
<glyph unicode="+" horiz-adv-x="1013" d="M117 643l33 186l292 -4l45 299h185l-51 -295l280 2l-33 -184l-278 -2l-55 -317h-185l53 317z" />
<glyph unicode="," horiz-adv-x="315" d="M47 -113q12 12 28.5 34t32 47.5t25.5 47t10 33.5t-14 8q-37 -10 -61.5 16.5t-14.5 67.5q10 53 51 84t85 32t76 -30.5t20 -91.5q-6 -41 -32 -79t-46.5 -60.5t-62.5 -51t-51 -32.5t-46 -25z" />
<glyph unicode="-" horiz-adv-x="962" d="M84 444l33 185l796 2l-32 -187h-797z" />
<glyph unicode="." horiz-adv-x="389" d="M31 123q10 55 52 87t88 33t77 -30t20 -86q-10 -59 -52 -93t-87 -34t-76.5 33t-21.5 90z" />
<glyph unicode="/" horiz-adv-x="1024" d="M2 0l815 1438l205 4l-801 -1442h-219z" />
<glyph unicode="0" horiz-adv-x="1165" d="M68 739q51 293 192 465q111 135 259.5 193.5t285.5 29t221 -138.5q145 -182 80 -555q-59 -365 -232 -553q-117 -129 -267 -169t-284.5 12.5t-209.5 183.5q-106 186 -45 532zM258 752q-47 -272 21 -402q68 -131 208 -142t254 109q123 133 174 420q51 291 -43 420 q-53 72 -139 92.5t-179 -19.5t-165 -134q-90 -119 -131 -344z" />
<glyph unicode="1" horiz-adv-x="802" d="M203 1229l41 246h434l-39 -236l-188 -1079h2l-27 -160h-199l25 160h-2l186 1069h-233z" />
<glyph unicode="2" horiz-adv-x="1105" d="M-53 0l766 811q135 164 137 291t-127 158q-70 16 -165 -21t-140 -121l-142 103q150 223 433 217q207 -4 289.5 -114t28.5 -290t-236 -381l-435 -469l562 2l-33 -186l-733 -2v2h-205z" />
<glyph unicode="3" horiz-adv-x="1044" d="M-49 90l143 139q68 -35 126.5 -51t99 -16t90.5 2q88 0 162.5 44t111.5 111.5t48 140t-25.5 135t-110.5 89.5h-186l20 160l176 4q92 14 156.5 118.5t36.5 196.5q-27 82 -133 107q-74 14 -164 -6.5t-144 -92.5l-139 99q158 174 449 168q131 -2 218 -65.5t109.5 -157 t-18.5 -206t-146 -208.5q70 -90 95.5 -189.5t8.5 -188.5t-69.5 -171t-128 -140.5t-172 -93t-196.5 -34.5q-223 -8 -418 106z" />
<glyph unicode="4" horiz-adv-x="976" d="M-37 332l14 88l916 1059h86l-174 -979h94l-33 -174h-86l-57 -326h-205l60 332h-396h-219zM244 498h366l97 549z" />
<glyph unicode="5" horiz-adv-x="1042" d="M-39 150l121 126q92 -61 154.5 -84.5t166.5 -23.5q100 2 180.5 57.5t119 130t37.5 153.5t-50 126q-88 78 -225 86l-242 -8l129 721h598l-24 -164h-412l-78 -406q152 4 234 -12t157 -76q63 -47 91 -124t21 -161.5t-49 -171t-109.5 -156t-171 -112.5t-224.5 -43 q-119 -6 -231.5 37t-192.5 105z" />
<glyph unicode="6" horiz-adv-x="1208" d="M63 524q-2 35 8.5 108t21.5 147.5t54 175t109 192.5q92 131 234.5 211t283.5 80q176 2 254 -52l-102 -153q-14 18 -67.5 32.5t-139.5 4.5q-96 -10 -175 -61.5t-131.5 -127t-84 -156.5t-47.5 -167v-35q90 84 186 126t165.5 47t140.5 -11.5t101.5 -31.5t57.5 -34 q66 -41 98.5 -140t9.5 -220q-29 -164 -133 -275q-174 -178 -409 -180q-262 0 -367 209q-27 49 -49.5 157.5t-18.5 153.5zM270 463q-16 -90 18 -155.5t94 -94.5t137 -28t148.5 33t128 99.5t72.5 159.5q18 100 -32 165t-138 91q-49 8 -81.5 3t-84.5 -19q-84 -25 -167 -105.5 t-95 -148.5z" />
<glyph unicode="7" horiz-adv-x="985" d="M-39 0l797 1225h-518l32 190l750 -2l-31 -172v-6l-778 -1235h-252z" />
<glyph unicode="8" horiz-adv-x="1136" d="M23 422q37 215 256 354q-100 135 -86 258q18 96 72 183.5t126 136.5q131 88 294 89t259 -79q61 -49 89 -139t9 -191q-23 -92 -165 -250q178 -135 139 -360q-31 -176 -129 -279q-86 -88 -205 -134t-242 -46q-133 0 -238.5 53.5t-156.5 151.5t-22 252zM231 434 q-16 -90 17 -156.5t92 -96t136 -30.5t148.5 28.5t127 96t71.5 158.5q16 100 -27.5 167t-129.5 91q-100 18 -195 -4q-90 -25 -157 -90.5t-83 -163.5zM387 1073q-16 -90 24 -145.5t113 -71.5q60 -6 123 2q82 18 139.5 73.5t73.5 143.5q12 68 -14.5 117t-75.5 71.5t-109.5 21.5 t-117 -23.5t-100.5 -71.5t-56 -117z" />
<glyph unicode="9" horiz-adv-x="1054" d="M131 1014q25 141 110 244.5t194.5 149.5t226 46t208 -46t137.5 -149.5t19 -242.5q-45 -188 -206 -479t-371 -537l-261 2q123 129 176.5 186.5t139.5 171t145 222.5q8 12 18.5 41.5t12.5 35.5q-88 -53 -213 -53q-104 0 -187 43t-128.5 138.5t-20.5 226.5zM324 1026 q-18 -106 27.5 -167.5t120.5 -70t157 20.5t129 84q53 55 78 147q12 78 -16.5 134.5t-82 80t-119 20.5t-127 -29.5t-108.5 -85t-59 -134.5z" />
<glyph unicode=":" horiz-adv-x="329" d="M-16 154q10 55 52 86.5t87 32.5t76.5 -29.5t21.5 -85.5q-10 -59 -53 -93t-88 -34t-75.5 33t-20.5 90zM106 838q8 51 52.5 81.5t88.5 31.5t76.5 -28.5t22.5 -82.5q-10 -55 -53 -87t-87 -32t-77 31t-23 86z" />
<glyph unicode=";" horiz-adv-x="315" d="M-6 -66q12 10 28.5 33t32 47.5t25.5 46t10 33.5t-16 8q-35 -8 -59.5 17.5t-14.5 68.5q8 51 50 83t87 33t75 -31.5t19 -92.5q-6 -39 -30.5 -78t-45 -60.5t-64.5 -50t-52 -33.5t-45 -24zM104 848q10 53 52.5 84t87.5 31t76.5 -29t23.5 -82q-10 -55 -52 -87t-87 -32t-77 31 t-24 84z" />
<glyph unicode="&#x3c;" horiz-adv-x="1265" d="M172 766l131 57l877 398l-37 -205l-559 -256l456 -271l-41 -210l-686 399z" />
<glyph unicode="=" horiz-adv-x="1361" d="M170 412l37 180l905 -2l-37 -180zM256 899l29 180l905 -2l-29 -180z" />
<glyph unicode="&#x3e;" horiz-adv-x="1265" d="M98 279l37 210l551 271l-469 256l37 205l733 -398l111 -57l-170 -88z" />
<glyph unicode="?" horiz-adv-x="1122" d="M252 123q8 55 51 87t88 33t77 -30t21 -86q-10 -59 -53 -93t-88 -34t-75.5 33t-20.5 90zM301 1391q78 74 166 108.5t203 34.5q182 0 272 -101.5t59 -269.5q-14 -86 -64 -157.5t-149 -157.5l-102 -90q-90 -82 -110.5 -124t-38.5 -149l-11 -34l-200 -11l14 68 q20 119 65.5 186.5t135.5 147.5l106 94q18 16 40 33.5t42.5 39t36.5 41t28.5 44t14.5 49.5q34 233 -195 233q-63 0 -111 -19.5t-77 -47t-64 -60.5z" />
<glyph unicode="@" horiz-adv-x="1853" d="M188.5 528.5q-10.5 94.5 8.5 188.5q49 285 258 491q111 111 284.5 178.5t335.5 67.5q150 0 282 -43t204 -117q94 -98 122.5 -237t-0.5 -297q-20 -117 -59 -185.5t-135 -144.5q-80 -59 -177.5 -73.5t-170 15t-90.5 91.5q-84 -51 -178.5 -58.5t-170 25.5t-117.5 116 t-24 197q14 90 57.5 163t101.5 115t125.5 64.5t136.5 19.5t122 -30q35 -18 45 -43l10 64h150q-14 -57 -35 -139.5t-32 -128.5t-21.5 -116.5t-12.5 -144.5q8 -55 82 -67.5t131 37.5q59 51 79 83.5t38 131.5q47 262 -92 417q-55 66 -167 102t-228 36q-137 0 -279.5 -53.5 t-228.5 -143.5q-147 -158 -189 -393q-16 -82 5.5 -173t73.5 -173t147.5 -137.5t216.5 -57.5q76 -2 138 3t104 16.5t79 26t64.5 30.5t60.5 35l82 -103q-70 -39 -108.5 -58.5t-107.5 -44t-149.5 -34.5t-187.5 -10q-133 0 -242.5 42t-177 110.5t-110.5 156.5t-53.5 182.5z M711 750q-10 -68 14.5 -120t71.5 -71.5t101 -17.5t104.5 35.5t76.5 93.5q8 23 18.5 85t12.5 83q-8 61 -45 98t-90 38t-108.5 -20.5t-98.5 -75.5t-57 -128z" />
<glyph unicode="A" horiz-adv-x="1380" d="M-88 2l805 1341l88 154l51 -188l350 -1307h-194l-111 373h-563l-232 -373h-194zM440 545h412l-123 508z" />
<glyph unicode="B" horiz-adv-x="1058" d="M-35 0l250 1409h410l4 -4h10q85 0 149 -34q68 -36 100 -93t37 -130q1 -13 1 -25q0 -59 -20 -115q-24 -68 -78 -127.5t-132 -89.5q-2 0 -2 -3.5t2 -3.5q94 -4 152 -64q58 -61 72 -149q5 -33 5 -67q1 -58 -15 -122q-24 -101 -84 -187q-60 -85 -164 -141q-97 -52 -213 -52 h-17l-22 -2h-344l2 2zM178 195h314q80 2 140 51q60 48 80 120q16 57 17 115q0 14 -1 28q-5 71 -51 121t-122 52v2h-291zM291 834h229q76 10 131.5 56t73.5 106q14 47 14 95q0 13 -1 25q-5 60 -51 100.5t-122 43.5v2h-198z" />
<glyph unicode="C" horiz-adv-x="1421" d="M66 442q-10 54 -9 109q0 213 148 442q137 215 357 335q204 111 413 110h35q180 -6 295 -64q43 -23 59 -36t53 -50l-168 -129q-23 37 -112.5 69t-159.5 34h-19q-155 0 -319 -92q-174 -98 -277 -255q-104 -162 -103 -319q0 -48 9 -94q41 -202 238 -301q94 -49 208 -52h15 q107 0 207 35q108 37 215 107l100 -137q-104 -82 -237 -128t-254 -54q-39 -2 -77 -2q-77 0 -147 10q-102 16 -163 51q-259 147 -307 411z" />
<glyph unicode="D" horiz-adv-x="1251" d="M-45 0l250 1415h217q26 3 69 3q21 0 47 -1q76 -2 109 -2q119 -2 214 -35.5t152.5 -89t90.5 -106.5t49 -107q30 -105 30 -219q-1 -43 -5 -87q-16 -161 -83 -305t-194 -262t-289 -171q-45 -14 -153 -33q-33 0 -92.5 -1t-94 -1t-114.5 2h-203zM180 170q74 0 140 -2h20 q58 0 130 9q85 11 159 40q109 41 189.5 143.5t116.5 218t46 221.5q4 44 4 83q0 53 -8 92q-31 131 -127 208t-250 77q-10 0 -87 1h-51q-50 0 -97 -1z" />
<glyph unicode="E" horiz-adv-x="989" d="M-14 0l250 1419h749l-31 -174h-561l-69 -401h401l-31 -170h-401l-90 -506h579l-28 -168h-768z" />
<glyph unicode="F" horiz-adv-x="960" d="M-6 0l250 1415h723l-31 -168h-533l-69 -403h399l-31 -170h-399l-119 -674h-190z" />
<glyph unicode="G" horiz-adv-x="1441" d="M44 608q13 158 92 317.5t206 283.5t301 198q161 68 329 68h27q178 -6 293 -66q43 -23 60.5 -36t54.5 -50l-170 -131q-18 39 -110.5 69.5t-161.5 34.5h-19q-155 0 -319 -92q-174 -98 -277 -256q-104 -165 -104 -323q0 -48 10 -95q41 -204 236 -307q92 -47 202 -49h11 q104 0 203 33q104 35 206 98l60 289h-283l29 151l460 3l-92 -510q-6 -33 -45 -52q-104 -84 -238.5 -131t-256.5 -56q-47 -4 -92 -4q-70 0 -132 9q-104 14 -166 49q-168 98 -248 248q-68 129 -68 263q0 22 2 44z" />
<glyph unicode="H" horiz-adv-x="1290" d="M-6 0l248 1413h188l-22 -149l-82 -457h675l109 614h186l-249 -1421h-187l113 637l-676 2l-113 -639h-190z" />
<glyph unicode="I" d="M-4 2l248 1423h184l-248 -1423h-184z" />
<glyph unicode="J" horiz-adv-x="811" d="M-76 -14l113 161q63 -53 143 -57h14q72 0 138 36q71 40 128.5 130t76.5 211l155 967h187l-154 -979q-20 -143 -88 -257t-158 -176.5t-188 -89.5q-63 -18 -127 -18q-34 0 -68 5q-98 15 -172 67z" />
<glyph unicode="K" horiz-adv-x="1302" d="M-25 -4l250 1409h191l-119 -666l676 666h231l-686 -664l559 -745h-235l-545 737l-131 -737h-191z" />
<glyph unicode="L" horiz-adv-x="970" d="M-25 4l250 1411l191 -2l-219 -1239h579l-31 -170h-770z" />
<glyph unicode="M" horiz-adv-x="1503" d="M-39 -2l334 1483l450 -805l723 797l-188 -1481h-176l102 944l-512 -547l-325 553l-232 -944h-176z" />
<glyph unicode="N" horiz-adv-x="1323" d="M-2 6l252 1428l733 -1016l170 1007h180l-260 -1482l-729 1013l-168 -950h-178z" />
<glyph unicode="O" horiz-adv-x="1540" d="M50 454q-11 62 -11 126q1 70 13 141q24 137 90.5 267t168 232.5t246.5 165t311 62.5q182 0 317.5 -63.5t207 -166t95.5 -233.5q12 -66 12 -133q0 -66 -12 -134q-24 -136 -94.5 -266t-178 -231.5t-262 -164t-328.5 -62.5q-170 0 -296 62.5t-191.5 165t-87.5 232.5z M242 725q-8 -50 -8 -100q0 -53 8 -105q18 -102 66 -180t138.5 -126t212.5 -48q125 0 239 48t191.5 127t130.5 181q54 100 74 206q10 53 10 104q0 52 -10 102q-20 100 -72 179q-54 79 -156 126q-98 45 -232 45h-11q-119 0 -222 -48t-174 -127t-120 -179.5t-65 -204.5z" />
<glyph unicode="P" horiz-adv-x="1036" d="M-18 2l249 1417l424 -2h8q121 0 203 -56q84 -59 111 -147q16 -52 16 -108q-1 -41 -9 -84q-20 -104 -80 -193.5t-168 -148.5q-104 -57 -233 -57h-9l-215 -2l-109 -615zM309 788h221q66 0 121.5 34t87 84t45.5 110q7 32 7 61q1 25 -5 49q-12 52 -54 86.5t-109 34.5l-234 2z " />
<glyph unicode="Q" horiz-adv-x="1562" d="M62 454q-11 64 -11 129q0 68 13 138q24 137 91.5 267t169 232.5t247 165t311.5 62.5q182 0 317 -63.5t206 -166t96 -233.5q12 -67 12 -135q0 -65 -12 -132q-23 -136 -95 -266t-178.5 -231.5t-261 -164t-330.5 -62.5q-170 0 -296 62.5t-190.5 165t-88.5 232.5zM256 725 q-8 -50 -8 -100q0 -53 9 -105q17 -102 64.5 -180t138.5 -126t212 -48q127 0 238.5 48t190.5 127t133 180.5t72 206.5q10 53 10 104.5t-10 101.5q-18 100 -70 179t-156 126q-99 45 -231 45h-11q-119 0 -222.5 -48t-175 -127t-120 -179.5t-64.5 -204.5zM858 412l172 120 l88 -124l223 -310l-176 -127l-196 285z" />
<glyph unicode="R" horiz-adv-x="1001" d="M-20 2l247 1432l424 2h10q100 0 173 -39q77 -41 112 -107.5t40 -150.5q1 -13 1 -26q1 -71 -23 -139q-28 -81 -88.5 -156t-142.5 -120l213 -696h-207l-196 641q-23 -2 -54 -2l-215 -2l-104 -637h-190zM305 807h223q63 0 117.5 33.5t88.5 83.5t46 110q7 31 7 60q1 26 -5 51 q-12 51 -54 86t-110 35h-233z" />
<glyph unicode="S" horiz-adv-x="1081" d="M-35 106l74 199q154 -78 260 -106q67 -19 135 -19h1q67 0 141 34t129 97q59 72 59 144q0 25 -8 51q-29 98 -131 133q-96 45 -152 66q-121 37 -191 109q-70 71 -86 152q-6 30 -6 60q0 52 16 107q26 86 86 154.5t155 112.5t204 44q123 0 193.5 -18.5t134.5 -75.5l-117 -138 q-74 73 -204 73q-24 0 -50 -3q-76 -8 -134 -57t-76 -111q-6 -20 -6 -40q0 -42 25 -88q38 -66 140 -105l156 -58q53 -20 101 -55t86 -89q38 -53 54 -117q8 -32 8 -69t-8 -78q-16 -83 -71 -169q-163 -256 -497 -256q-65 0 -136 10q-76 14 -128 31.5t-72.5 28t-84.5 46.5z" />
<glyph unicode="T" horiz-adv-x="1003" d="M127 1241l29 164h938l-29 -164l-373 -2l-225 -1239h-188v2l223 1237z" />
<glyph unicode="U" horiz-adv-x="1212" d="M76 312q-10 46 -9 96q0 63 15 133l147 858l191 4l-148 -858q-7 -44 -7 -84q1 -39 7 -74q14 -72 47 -116t83.5 -67.5t106.5 -23.5t114.5 24.5t109.5 68.5t90 117t58 163l4 -4l147 848h187l-144 -854q-20 -133 -81.5 -238.5t-144.5 -170t-179 -98.5q-91 -32 -181 -32h-11 q-95 2 -179 38t-142.5 101t-80.5 169z" />
<glyph unicode="V" horiz-adv-x="1382" d="M176 1419h193l137 -540l119 -508l323 508l328 540h192l-923 -1495l-37 156z" />
<glyph unicode="W" horiz-adv-x="1771" d="M184 1417h181l157 -952l414 682l47 78l18 -80l175 -678l491 952l178 -2l-753 -1456l-185 797l-483 -801z" />
<glyph unicode="X" horiz-adv-x="1423" d="M-66 0l168 190l510 609l-192 368l-139 263h247l138 -263l94 -192l182 217l199 233l217 2l-207 -247h2l-309 -371l307 -625v-2l86 -184l-211 2l-88 172l-242 463l-370 -445l-148 -190h-244z" />
<glyph unicode="Y" horiz-adv-x="1236" d="M158 1417h217l274 -561l463 561h217l-608 -733l-119 -678l-219 -6l133 676h2z" />
<glyph unicode="Z" horiz-adv-x="1628" d="M123 0q18 20 68.5 75.5t99.5 114.5l858 1033h-711l31 174h1051l-150 -185l-854 -1022h776l-32 -186z" />
<glyph unicode="[" horiz-adv-x="712" d="M0 0l254 1442l192 -4h263l-37 -191h-260l-187 -1059h267l-35 -188h-264h-193z" />
<glyph unicode="\" horiz-adv-x="1007" d="M248 1442l205 -4l307 -1438h-219z" />
<glyph unicode="]" horiz-adv-x="704" d="M-2 0l31 188h266l186 1059h-260l33 191h262l193 4l-254 -1442h-193h-264z" />
<glyph unicode="^" horiz-adv-x="1239" d="M285 1083l385 420l211 -418h-179l-79 160l-150 -160z" />
<glyph unicode="_" horiz-adv-x="1144" d="M84 -168l29 168h948l-29 -168h-948z" />
<glyph unicode="`" horiz-adv-x="2048" d="M825 1868l154 149l233 -301l-118 -96z" />
<glyph unicode="a" horiz-adv-x="1042" d="M66 424q20 115 75.5 207t130 147.5t161.5 83.5q74 24 147 25q13 0 26 -1q86 -5 156 -40q45 -20 59 -53l15 81h190l-158 -874h-186l12 63q-84 -51 -181 -69q-46 -9 -90 -9q-48 1 -93 11q-86 20 -152 70q-66 51 -98 144q-20 59 -21 130q0 40 7 84zM244 430q-5 -31 -6 -59 q0 -55 22 -101q32 -68 94 -94q61 -24 129 -23h5q70 1 138 47t101 122q14 31 26.5 113.5t12.5 109.5q-6 70 -43 113.5t-91 57.5q-31 8 -64 9q-24 0 -52 -5q-62 -11 -118 -47t-99 -99.5t-55 -143.5z" />
<glyph unicode="b" horiz-adv-x="1046" d="M-41 0l268 1532h191l-131 -741q18 16 59 38.5t70 30.5q66 20 133 22h11q62 0 118 -16q62 -16 112 -54t82.5 -91t43.5 -130q4 -31 5 -65q0 -49 -10 -102q-23 -121 -87 -214t-149 -143.5t-179 -70.5q-49 -11 -97 -11q-43 1 -86 9q-90 18 -157 69l-11 -63h-186zM213 328 q6 -76 56 -120t119 -45h5q67 -1 133 23q68 24 122.5 90t70.5 156q6 32 6 61q-1 55 -21 101q-30 70 -90 96q-58 26 -125 26h-5q-68 -1 -133.5 -47t-100.5 -126q-8 -27 -24 -107q-13 -64 -14 -95q0 -8 1 -13z" />
<glyph unicode="c" horiz-adv-x="862" d="M42 314q-2 20 -2 40q0 146 110 295q92 125 230 185q112 49 225 50q26 0 52 -3q109 -12 174 -54q29 -16 25 -14t12 -12l-131 -160q-10 20 -53 38.5t-76 22.5q-15 2 -31 2q-67 0 -134 -28q-83 -34 -134 -109q-69 -93 -69 -179v-18q8 -94 96 -151q51 -33 117 -35 q12 -1 24 -1q81 0 152 36q29 12 43 23l63 -160q-106 -82 -294 -82h-9q-152 0 -223 49q-150 100 -167 265z" />
<glyph unicode="d" horiz-adv-x="1054" d="M29 424q16 104 64 191t112.5 140.5t143.5 89.5t157 39h26q64 0 125 -12q88 -20 131 -47l125 707h191l-273 -1532h-184l10 78q-6 -4 -33.5 -25.5t-41.5 -27.5q-82 -33 -169 -38q-14 -1 -27 -1q-72 0 -135 22q-75 26 -133.5 77.5t-81.5 139.5q-14 52 -14 112q0 41 7 87z M223 432q-5 -30 -6 -57q1 -55 23 -99q32 -66 92 -90q58 -24 124 -23h6q68 1 132.5 45t99.5 120q10 29 23.5 108.5t13.5 106.5q-8 80 -57 126t-117 47h-5q-66 0 -132 -26q-70 -26 -125.5 -96t-71.5 -162z" />
<glyph unicode="e" horiz-adv-x="1024" d="M72 438q18 100 72.5 189.5t148.5 158t209 91.5q57 10 116 10q55 0 103 -8q117 -25 177 -107t64 -186v-16q0 -96 -38 -201l-668 -2q10 -86 60.5 -131.5t172.5 -55.5q25 -4 58 -1t89 22.5t101 56.5l2 2l138 -92v-2q-70 -74 -191 -125q-63 -29 -154 -39q-41 -4 -81 -4 q-55 0 -105 8q-111 23 -180.5 89.5t-91.5 154.5q-12 47 -11 98q0 44 9 90zM287 514l489 2q2 19 2 36q0 177 -188 177q-115 0 -197 -65.5t-106 -149.5z" />
<glyph unicode="f" horiz-adv-x="735" d="M49 0l125 709h-102l28 155h111q23 125 70 218.5t105 141.5t114.5 69.5t109.5 21.5q35 0 59.5 -7.5t49 -18.5t41.5 -15l-125 -154l-33 19q-82 0 -127 -59.5t-72 -215.5h211l-28 -159h-217l-123 -705h-197z" />
<glyph unicode="g" horiz-adv-x="974" d="M53 -287l99 146q4 -2 108 -62q45 -25 104 -29q11 -1 22 -1q47 0 94 13q57 17 109 58t79 101l10 61l22 121q-53 -47 -124 -69q-64 -21 -130 -21h-12q-72 2 -138.5 30.5t-114.5 76.5t-71 127q-13 49 -13 103q0 34 5 70q18 102 68.5 189.5t120 141.5t150.5 85q76 29 153 29 h10q82 -2 152 -37q45 -20 59 -53l12 81h193l-156 -862q-39 -221 -235 -348q-111 -68 -247 -71h-13q-128 0 -219 55q-55 33 -67.5 40t-29.5 25zM281 459q-4 -25 -4 -49q0 -51 21 -94q30 -62 87 -88.5t121.5 -26.5t125 44t93.5 122q4 20 15.5 72.5t13.5 76.5q4 22 4 41 q0 42 -18 74q-25 47 -74 65q-38 15 -84 15q-12 0 -25 -1q-61 -5 -117.5 -33t-100.5 -85t-58 -133z" />
<glyph unicode="h" horiz-adv-x="997" d="M-33 -2l266 1522l193 12l-131 -739q25 16 62.5 38.5t64.5 30.5q70 23 139 23q180 0 248 -113q46 -76 46 -187q0 -54 -11 -116q-27 -143 -41.5 -223t-17.5 -99.5t-10 -56.5t-17 -92h-193q12 66 24.5 131.5t26 140t37.5 211.5q5 30 5 56q0 45 -13 79q-20 54 -62 76 q-35 18 -80 18q-7 0 -17 -1q-56 -4 -107 -32t-91 -79t-50 -117l-86 -483h-185z" />
<glyph unicode="i" d="M16 -4l154 891h188l-157 -891h-185zM195 1116q8 47 47 75q38 28 78 29h3q38 0 66 -26q23 -21 22 -56q0 -10 -1 -20q-8 -51 -48 -80.5t-80 -29.5t-68 28q-21 21 -22 55q0 12 3 25z" />
<glyph unicode="j" d="M-4 -209l190 1090h189l-193 -1090h-186zM213 1116q8 47 46 75t79 29h3q39 0 67 -26q22 -21 22 -56q0 -9 -2 -20q-10 -51 -49 -80.5t-79 -29.5t-68 28q-22 22 -22 55q0 12 3 25z" />
<glyph unicode="k" horiz-adv-x="1003" d="M-35 0l273 1532h190l-186 -1045l133 113l317 270l242 -2l-473 -403l381 -465l-242 -2l-272 332l-95 112l-77 -442h-191z" />
<glyph unicode="l" horiz-adv-x="430" d="M-23 0l283 1602h193l-199 -1115l-86 -487h-191z" />
<glyph unicode="m" horiz-adv-x="1527" d="M18 0l152 879h190l-12 -72q39 25 62.5 37t77 27.5t110.5 15.5q72 0 118 -19.5t83 -62.5q16 -14 31.5 -17.5t24.5 -1.5t30.5 16.5t32.5 18.5q47 31 108 47q33 12 53.5 13.5t46.5 -0.5q178 0 247 -117q46 -78 45 -187q0 -56 -11 -120q-25 -143 -38 -220t-16 -94.5 t-10.5 -50.5t-17.5 -90l-195 -2q10 66 21.5 124t25 128t35.5 209q6 35 6 66q0 37 -9 68q-17 56 -54 81.5t-85 25.5t-93 -23.5t-82 -74.5t-49 -121q-2 -12 -86 -483h-178q12 68 23 131.5t24.5 136t38.5 209.5q6 33 6 63q0 42 -12 74q-20 56 -56 80q-35 23 -83 22h-4 q-50 -1 -96 -24.5t-83 -74t-49 -115.5l-88 -502h-185z" />
<glyph unicode="n" horiz-adv-x="872" d="M-4 0l154 879h190l-12 -68q12 6 102 49q43 18 156 19q176 1 230 -105q32 -64 32 -161q0 -64 -14 -142l-86 -471h-193q12 68 23.5 134.5t27 142t37.5 212.5q6 35 6 65q0 38 -10 70q-18 56 -56 78q-34 20 -77 20h-12q-50 -3 -97 -28.5t-84 -77t-49 -116.5l-84 -500h-184z " />
<glyph unicode="o" horiz-adv-x="1021" d="M46 446q22 116 89.5 214t187.5 163.5t265 65.5q147 0 242.5 -65.5t125.5 -163.5q17 -57 17 -120q1 -46 -9 -94q-22 -116 -88.5 -215.5t-186.5 -165t-265 -65.5q-147 0 -244 66q-98 64 -128 164q-17 56 -16 119q0 47 10 97zM230 456q-6 -32 -5 -62q-1 -38 9 -74 q18 -64 75.5 -106t145.5 -42q135 0 229 88q63 59 93 142q22 60 22 116q1 21 -3 42q-12 75 -72.5 128t-162.5 53q-88 0 -161.5 -43t-114.5 -105.5t-55 -136.5z" />
<glyph unicode="p" horiz-adv-x="1038" d="M-33 -412l226 1286h190l-12 -65q84 51 181 69q44 9 86 9q50 0 98 -13q87 -22 154.5 -75.5t96.5 -151.5q16 -53 16 -113q0 -52 -12 -110q-23 -121 -86 -214t-149 -143.5t-180 -70.5q-50 -11 -98 -11q-44 0 -86 9q-89 18 -154 69l-86 -475h-185zM293 328q6 -76 56 -120 t118 -45h5q66 0 132 23q70 25 125.5 90.5t71.5 155.5q6 32 6 61q0 55 -21 101q-30 70 -92 96q-59 26 -124 26h-4q-68 -1 -133.5 -47t-102.5 -126q-8 -27 -24 -107q-13 -71 -13 -101v-7z" />
<glyph unicode="q" horiz-adv-x="1017" d="M102 424q14 92 53.5 170t93.5 132t119.5 92t135.5 54q61 13 122 13h16q69 -2 128 -27q63 -23 86 -65l14 81h191l-230 -1286h-184l82 475q-82 -51 -178 -69q-46 -9 -89 -9q-48 0 -94 11q-87 20 -155 70.5t-99 143.5q-19 58 -19 128q0 41 7 86zM297 432q-5 -30 -5 -57 q0 -55 22 -99q32 -65 92 -90q59 -23 124 -23h6q68 1 132.5 45t99.5 120q10 29 23.5 108.5t13.5 106.5q-8 80 -57.5 126t-117.5 47h-4q-66 0 -132 -26q-70 -26 -125.5 -96t-71.5 -162z" />
<glyph unicode="r" horiz-adv-x="702" d="M-14 0l153 879h191l-33 -177l2 3q23 68 81 114.5t117.5 64t116.5 17.5q59 0 111 -27l-102 -167q-23 5 -49 5q-34 0 -74 -8q-70 -16 -119 -61q-45 -41 -85 -105.5t-50 -119.5l-76 -418h-184z" />
<glyph unicode="s" horiz-adv-x="851" d="M41 152l162 122q53 -88 172 -102q16 -2 31 -2q41 0 75 16q47 22 65 54q9 17 9 34q1 16 -7 32q-16 34 -67 50q-150 45 -180 58q-75 33 -97 96q-14 40 -14 83q0 25 5 50q6 37 27.5 77t61.5 80t112.5 65.5t162.5 25.5q172 0 238 -84l-123 -131q-39 57 -113 67 q-27 4 -59.5 -1t-65.5 -27.5t-41 -63.5q-1 -9 -2 -17q0 -61 80 -87l92 -19q101 -33 145 -94q37 -51 37 -106q1 -12 -1 -22q-8 -66 -42 -125.5t-83 -100.5q-59 -49 -128 -66.5t-159 -19.5h-6q-68 0 -163 42q-99 44 -124 116z" />
<glyph unicode="t" horiz-adv-x="497" d="M53 -4l123 700h-88l29 168h94l33 189h190q-21 -119 -33 -189h99l-31 -172h-100l-121 -696h-195z" />
<glyph unicode="u" horiz-adv-x="966" d="M78 408q27 143 41 223t18 99.5t10.5 56t16.5 92.5h192q-86 -487 -86 -490q-6 -34 -6 -63q0 -38 10 -67q18 -49 59 -65q23 -9 49 -9q19 1 40 5q49 12 97 44t87 87.5t49 120.5l76 437h187l-154 -879h-191l19 131q-16 -10 -58 -49t-65 -49q-72 -33 -141 -33q-178 0 -232 106 q-32 64 -32 160q0 64 14 142z" />
<glyph unicode="v" horiz-adv-x="956" d="M145 874l197 3l125 -506l328 510l186 -2l-594 -955z" />
<glyph unicode="w" horiz-adv-x="1198" d="M147 874l197 3l102 -521l244 344l113 -338l280 519l187 -2l-510 -942l-135 403l-295 -403z" />
<glyph unicode="x" horiz-adv-x="1007" d="M-10 0l170 190l248 289l-105 207l-100 188l246 3l79 -191l21 -41l194 232h218l-207 -246l-125 -150l114 -235l119 -248l-217 2l-117 233l-39 82l-104 -125l-149 -190h-246z" />
<glyph unicode="y" horiz-adv-x="946" d="M-35 -410l395 564l-208 720l196 3l154 -506l352 510l184 -2l-854 -1289h-219z" />
<glyph unicode="z" horiz-adv-x="913" d="M-16 0l608 711l-424 -2l27 159h723l-140 -166l-436 -526h467l-31 -176h-794z" />
<glyph unicode="{" horiz-adv-x="548" d="M-61 651q61 0 105 57.5t61.5 126t28.5 131t13 62.5q51 203 180.5 345.5t305.5 213.5l-37 -211q-190 -121 -254 -342q0 -2 -12.5 -63.5t-30.5 -130t-62 -127t-106 -58.5q33 0 55.5 -15t32.5 -38.5t16.5 -56.5t4.5 -64.5t-6.5 -65.5t-8.5 -57.5t-6 -42.5q-6 -18 -6 -20 q-20 -209 129 -344l-39 -230q-147 78 -224 225.5t-59 354.5q0 2 4.5 19.5t9.5 41t8 56.5t4 63.5t-4 62t-16.5 54.5t-33 38t-53.5 15zM213 295z" />
<glyph unicode="|" d="M-10 0l250 1427h192l-162 -940l-90 -487h-190z" />
<glyph unicode="}" horiz-adv-x="548" d="M-223 -279l39 230q199 135 252 344q0 2 4 20q0 18 4 42t12 58t18.5 65.5t25.5 64.5t34.5 56.5t48.5 38.5t61 15q-61 0 -85.5 58.5t-17.5 127t17.5 130t10.5 63.5q14 221 -135 342l36 211q152 -72 232 -214t57 -345q0 -2 -8 -61q-12 -63 -17.5 -132t18.5 -126.5t85 -57.5 q-33 0 -60.5 -15t-47 -38t-36 -54.5t-26.5 -62t-17.5 -63.5t-10.5 -56.5t-5 -41t-2 -19.5q-55 -207 -185 -354.5t-302 -225.5zM68 295z" />
<glyph unicode="~" horiz-adv-x="1015" d="M299 1024l2 2q-12 49 5.5 92t58.5 66.5t85 32t80.5 -10t51.5 -61.5l-90 -41q-8 29 -37 32t-50.5 -18.5t-13.5 -50.5v-2l2 -2zM492 1104l90 41q8 -29 36.5 -32t50 18.5t13.5 50.5v2l-2 2l94 39l-2 -2q12 -49 -5 -92.5t-58 -67t-85 -31.5t-81 10.5t-51 61.5z" />
<glyph unicode="&#xa1;" horiz-adv-x="487" d="M27 2l147 903h186l-149 -903h-184zM215 1298q8 57 51 90t88 33t76 -33.5t21 -93.5q-10 -55 -52.5 -85.5t-87.5 -29.5t-75.5 32.5t-20.5 86.5z" />
<glyph unicode="&#xa5;" horiz-adv-x="1236" d="M10 229l35 181h1026l-35 -181h-1026zM76 598l28 180h1026l-28 -180h-1026zM158 1417h217l274 -561l463 561h217l-608 -733l-119 -678l-219 -6l133 676h2z" />
<glyph unicode="&#xa6;" d="M4 0l113 645h172l-107 -645h-178zM143 793l113 632h172l-113 -632h-172z" />
<glyph unicode="&#xa8;" horiz-adv-x="1460" d="M330 1649q8 55 51 87.5t88 32.5t77 -30.5t21 -85.5q-10 -59 -53 -93t-88 -34t-75.5 33t-20.5 90zM836 1638q8 55 51 88t88 33t76.5 -30.5t21.5 -86.5q-10 -59 -53 -92.5t-88 -33.5t-75.5 32.5t-20.5 89.5z" />
<glyph unicode="&#xab;" horiz-adv-x="1239" d="M70 598l469 283l-31 -176l-180 -111l139 -119l-31 -188zM496 592l465 285l-31 -179l-178 -108l137 -121l-31 -186z" />
<glyph unicode="&#xad;" horiz-adv-x="962" d="M84 444l33 185l796 2l-32 -187h-797z" />
<glyph unicode="&#xb0;" horiz-adv-x="1146" d="M432 1640q10 66 61.5 102t104.5 31.5t91 -41t28 -96.5q-10 -63 -62.5 -101t-105.5 -40t-91 36.5t-26 108.5zM526 1642q-6 -33 16.5 -46t50.5 0.5t34 48.5q6 31 -17.5 44t-51.5 -1.5t-32 -45.5z" />
<glyph unicode="&#xb1;" horiz-adv-x="1013" d="M6 260l33 184l795 2l-33 -186h-795zM147 967l33 184l291 -2l47 299h184l-51 -295l281 2l-33 -184l-278 -2l-54 -318h-186l55 318z" />
<glyph unicode="&#xb2;" horiz-adv-x="823" d="M246 1075l383 406q68 82 68.5 145.5t-66.5 79.5q-33 8 -80 -10.5t-70 -61.5l-69 52q72 113 215 108q102 -2 143 -56.5t14.5 -144.5t-116.5 -190l-217 -236l280 2l-16 -94h-367h-102z" />
<glyph unicode="&#xb3;" horiz-adv-x="782" d="M236 1116l71 70q35 -16 63.5 -24.5t49 -8.5h45.5q74 0 122 55.5t42 119t-70 85.5l-94 2l12 78l86 2q49 8 81 60.5t15 97.5q-12 41 -65 53q-37 8 -82 -2t-72 -47l-69 49q80 88 223 84q66 0 110 -32t55 -78t-9.5 -103t-73.5 -104q53 -68 55 -143t-37 -132t-105.5 -96 t-142.5 -39q-113 -4 -210 53z" />
<glyph unicode="&#xb4;" horiz-adv-x="2048" d="M563 1716l340 301l101 -149l-355 -248z" />
<glyph unicode="&#xb9;" horiz-adv-x="581" d="M293 1085l14 80l76 445l-31 -29l-53 57l160 129l61 56l-18 -119l-96 -539h2l-15 -80h-100z" />
<glyph unicode="&#xbb;" horiz-adv-x="1239" d="M14 283l35 186l182 121l-141 108l31 179l366 -285zM440 287l35 188l180 119l-139 111l31 176l366 -283z" />
<glyph unicode="&#xbf;" horiz-adv-x="1122" d="M121 373q14 84 64.5 156.5t148.5 158.5l102 90q90 82 110.5 124t39.5 149l10 34l201 11l-15 -68q-20 -119 -64 -186.5t-136 -147.5l-105 -94q-20 -18 -41.5 -34.5t-42 -38t-37 -42t-29 -44t-14.5 -48.5q-36 -235 193 -235q63 0 112.5 19.5t78 48t65.5 61.5l59 -142 q-78 -74 -166 -109.5t-202 -35.5q-182 0 -271.5 102.5t-60.5 270.5zM633 1409q10 59 53 93t88 34t75.5 -33t22.5 -90q-10 -55 -53 -87t-88 -33t-76.5 30t-21.5 86z" />
<glyph unicode="&#xc0;" horiz-adv-x="1423" d="M-88 2l805 1341l88 154l51 -188l350 -1307h-194l-111 373h-563l-232 -373h-194zM440 545h412l-123 508zM571 1819l154 149l233 -301l-118 -96z" />
<glyph unicode="&#xc1;" horiz-adv-x="1423" d="M-88 2l805 1341l88 154l51 -188l350 -1307h-194l-111 373h-563l-232 -373h-194zM440 545h412l-123 508zM590 1667l340 301l101 -149l-355 -248z" />
<glyph unicode="&#xc2;" horiz-adv-x="1380" d="M-88 2l805 1341l88 154l51 -188l350 -1307h-194l-111 373h-563l-232 -373h-194zM440 545h412l-123 508zM537 1620l385 420l211 -418h-179l-79 160l-150 -160z" />
<glyph unicode="&#xc3;" horiz-adv-x="1380" d="M-88 2l805 1341l88 154l51 -188l350 -1307h-194l-111 373h-563l-232 -373h-194zM440 545h412l-123 508zM643 1622l2 2q-12 49 5.5 92t58.5 66.5t85 32t80.5 -10t51.5 -61.5l-90 -41q-8 29 -37 32t-50.5 -18.5t-13.5 -50.5v-2l2 -2zM836 1702l90 41q8 -29 36.5 -32 t50 18.5t13.5 50.5v2l-2 2l94 39l-2 -2q12 -49 -5 -92.5t-58 -67t-85 -31.5t-81 10.5t-51 61.5z" />
<glyph unicode="&#xc4;" horiz-adv-x="1423" d="M-88 2l805 1341l88 154l51 -188l350 -1307h-194l-111 373h-563l-232 -373h-194zM440 545h412l-123 508zM473 1649q8 55 51 87.5t88 32.5t77 -30.5t21 -85.5q-10 -59 -53 -93t-88 -34t-75.5 33t-20.5 90zM979 1638q8 55 51 88t88 33t76.5 -30.5t21.5 -86.5 q-10 -59 -53 -92.5t-88 -33.5t-75.5 32.5t-20.5 89.5z" />
<glyph unicode="&#xc5;" horiz-adv-x="1423" d="M-88 2l805 1341l88 154l51 -188l350 -1307h-194l-111 373h-563l-232 -373h-194zM440 545h412l-123 508zM676 1640q10 66 61.5 102t104.5 31.5t91 -41t28 -96.5q-10 -63 -62.5 -101t-105.5 -40t-91 36.5t-26 108.5zM770 1642q-6 -33 16.5 -46t50.5 0.5t34 48.5 q6 31 -17.5 44t-51.5 -1.5t-32 -45.5z" />
<glyph unicode="&#xc8;" horiz-adv-x="1060" d="M-14 0l250 1419h749l-31 -174h-561l-69 -401h401l-31 -170h-401l-90 -506h579l-28 -168h-768zM419 1819l154 149l233 -301l-118 -96z" />
<glyph unicode="&#xc9;" horiz-adv-x="1060" d="M-14 0l250 1419h749l-31 -174h-561l-69 -401h401l-31 -170h-401l-90 -506h579l-28 -168h-768zM434 1667l340 301l101 -149l-355 -248z" />
<glyph unicode="&#xca;" horiz-adv-x="989" d="M-14 0l250 1419h749l-31 -174h-561l-69 -401h401l-31 -170h-401l-90 -506h579l-28 -168h-768zM340 1570l385 420l211 -418h-179l-79 160l-150 -160z" />
<glyph unicode="&#xcb;" horiz-adv-x="989" d="M-14 0l250 1419h749l-31 -174h-561l-69 -401h401l-31 -170h-401l-90 -506h579l-28 -168h-768zM269 1704q8 55 51 87.5t88 32.5t77 -30.5t21 -85.5q-10 -59 -53 -93t-88 -34t-75.5 33t-20.5 90zM775 1693q8 55 51 88t88 33t76.5 -30.5t21.5 -86.5q-10 -59 -53 -92.5 t-88 -33.5t-75.5 32.5t-20.5 89.5z" />
<glyph unicode="&#xcc;" d="M-4 2l248 1423h184l-248 -1423h-184zM53 1819l154 149l233 -301l-118 -96z" />
<glyph unicode="&#xcd;" d="M-4 2l248 1423h184l-248 -1423h-184zM219 1667l340 301l101 -149l-355 -248z" />
<glyph unicode="&#xce;" d="M-4 2l248 1423h184l-248 -1423h-184zM64 1570l385 420l211 -418h-179l-79 160l-150 -160z" />
<glyph unicode="&#xcf;" d="M275 1704q8 55 51 87.5t88 32.5t77 -30.5t21 -85.5q-10 -59 -53 -93t-88 -34t-75.5 33t-20.5 90zM277 2l248 1423h184l-248 -1423h-184zM781 1693q8 55 51 88t88 33t76.5 -30.5t21.5 -86.5q-10 -59 -53 -92.5t-88 -33.5t-75.5 32.5t-20.5 89.5z" />
<glyph unicode="&#xd2;" horiz-adv-x="1540" d="M49.5 454q-22.5 130 2 267t91 267t168 232.5t246.5 165t311 62.5q182 0 317.5 -63.5t207 -166t96 -233.5t0 -267t-95 -266t-178 -231.5t-262 -164t-328.5 -62.5q-170 0 -296 62.5t-191.5 165t-88 232.5zM241.5 725q-16.5 -104 1 -205.5t65.5 -179.5t138.5 -126t212.5 -48 q125 0 239 48t191.5 127t131 180.5t73 207t0 205.5t-72 179t-155 126t-243.5 45q-119 0 -222 -48t-174 -127t-120 -179.5t-65.5 -204.5zM571 1819l154 149l233 -301l-118 -96z" />
<glyph unicode="&#xd3;" horiz-adv-x="1540" d="M49.5 454q-22.5 130 2 267t91 267t168 232.5t246.5 165t311 62.5q182 0 317.5 -63.5t207 -166t96 -233.5t0 -267t-95 -266t-178 -231.5t-262 -164t-328.5 -62.5q-170 0 -296 62.5t-191.5 165t-88 232.5zM241.5 725q-16.5 -104 1 -205.5t65.5 -179.5t138.5 -126t212.5 -48 q125 0 239 48t191.5 127t131 180.5t73 207t0 205.5t-72 179t-155 126t-243.5 45q-119 0 -222 -48t-174 -127t-120 -179.5t-65.5 -204.5zM753 1667l340 301l101 -149l-355 -248z" />
<glyph unicode="&#xd4;" horiz-adv-x="1540" d="M49.5 454q-22.5 130 2 267t91 267t168 232.5t246.5 165t311 62.5q182 0 317.5 -63.5t207 -166t96 -233.5t0 -267t-95 -266t-178 -231.5t-262 -164t-328.5 -62.5q-170 0 -296 62.5t-191.5 165t-88 232.5zM241.5 725q-16.5 -104 1 -205.5t65.5 -179.5t138.5 -126t212.5 -48 q125 0 239 48t191.5 127t131 180.5t73 207t0 205.5t-72 179t-155 126t-243.5 45q-119 0 -222 -48t-174 -127t-120 -179.5t-65.5 -204.5zM594 1570l385 420l211 -418h-179l-79 160l-150 -160z" />
<glyph unicode="&#xd5;" horiz-adv-x="1540" d="M49.5 454q-22.5 130 2 267t91 267t168 232.5t246.5 165t311 62.5q182 0 317.5 -63.5t207 -166t96 -233.5t0 -267t-95 -266t-178 -231.5t-262 -164t-328.5 -62.5q-170 0 -296 62.5t-191.5 165t-88 232.5zM241.5 725q-16.5 -104 1 -205.5t65.5 -179.5t138.5 -126t212.5 -48 q125 0 239 48t191.5 127t131 180.5t73 207t0 205.5t-72 179t-155 126t-243.5 45q-119 0 -222 -48t-174 -127t-120 -179.5t-65.5 -204.5zM700 1573l2 2q-12 49 5.5 92t58.5 66.5t85 32t80.5 -10t51.5 -61.5l-90 -41q-8 29 -37 32t-50.5 -18.5t-13.5 -50.5v-2l2 -2zM893 1653 l90 41q8 -29 36.5 -32t50 18.5t13.5 50.5v2l-2 2l94 39l-2 -2q12 -49 -5 -92.5t-58 -67t-85 -31.5t-81 10.5t-51 61.5z" />
<glyph unicode="&#xd6;" horiz-adv-x="1662" d="M49.5 454q-22.5 130 2 267t91 267t168 232.5t246.5 165t311 62.5q182 0 317.5 -63.5t207 -166t96 -233.5t0 -267t-95 -266t-178 -231.5t-262 -164t-328.5 -62.5q-170 0 -296 62.5t-191.5 165t-88 232.5zM241.5 725q-16.5 -104 1 -205.5t65.5 -179.5t138.5 -126t212.5 -48 q125 0 239 48t191.5 127t131 180.5t73 207t0 205.5t-72 179t-155 126t-243.5 45q-119 0 -222 -48t-174 -127t-120 -179.5t-65.5 -204.5zM526 1649q8 55 51.5 87.5t88.5 32.5t76.5 -30.5t21.5 -85.5q-10 -59 -53 -93t-88 -34t-76 33t-21 90zM659 -6zM1032 1638q8 55 51 88 t88.5 33t77 -30.5t21.5 -86.5q-10 -59 -53 -92.5t-88.5 -33.5t-76 32.5t-20.5 89.5z" />
<glyph unicode="&#xd7;" horiz-adv-x="1013" d="M135 532l244 207l-178 205l153 131l172 -209l232 201l108 -131l-231 -199l184 -223l-153 -131l-187 223l-235 -205z" />
<glyph unicode="&#xd9;" horiz-adv-x="1212" d="M76.5 311.5q-21.5 104.5 5.5 229.5l147 858l191 4l-148 -858q-14 -86 -0.5 -158t47 -116t84 -67.5t106.5 -23.5t114.5 24.5t109.5 68.5t90 117t58 163l4 -4l147 848h187l-144 -854q-20 -133 -81.5 -238.5t-144.5 -170t-179.5 -98.5t-191.5 -32t-179 38t-142.5 100.5 t-80 169zM446 1819l154 149l233 -301l-118 -96z" />
<glyph unicode="&#xda;" horiz-adv-x="1212" d="M76.5 311.5q-21.5 104.5 5.5 229.5l147 858l191 4l-148 -858q-14 -86 -0.5 -158t47 -116t84 -67.5t106.5 -23.5t114.5 24.5t109.5 68.5t90 117t58 163l4 -4l147 848h187l-144 -854q-20 -133 -81.5 -238.5t-144.5 -170t-179.5 -98.5t-191.5 -32t-179 38t-142.5 100.5 t-80 169zM639 1667l340 301l101 -149l-355 -248z" />
<glyph unicode="&#xdb;" horiz-adv-x="1212" d="M76.5 311.5q-21.5 104.5 5.5 229.5l147 858l191 4l-148 -858q-14 -86 -0.5 -158t47 -116t84 -67.5t106.5 -23.5t114.5 24.5t109.5 68.5t90 117t58 163l4 -4l147 848h187l-144 -854q-20 -133 -81.5 -238.5t-144.5 -170t-179.5 -98.5t-191.5 -32t-179 38t-142.5 100.5 t-80 169zM463 1570l385 420l211 -418h-179l-79 160l-150 -160z" />
<glyph unicode="&#xdc;" horiz-adv-x="1212" d="M76.5 311.5q-21.5 104.5 5.5 229.5l147 858l191 4l-148 -858q-14 -86 -0.5 -158t47 -116t84 -67.5t106.5 -23.5t114.5 24.5t109.5 68.5t90 117t58 163l4 -4l147 848h187l-144 -854q-20 -133 -81.5 -238.5t-144.5 -170t-179.5 -98.5t-191.5 -32t-179 38t-142.5 100.5 t-80 169zM391 1649q8 55 51 87.5t88 32.5t77 -30.5t21 -85.5q-10 -59 -53 -93t-88 -34t-75.5 33t-20.5 90zM897 1638q8 55 51 88t88 33t76.5 -30.5t21.5 -86.5q-10 -59 -53 -92.5t-88 -33.5t-75.5 32.5t-20.5 89.5z" />
<glyph unicode="&#xdf;" horiz-adv-x="1058" d="M-35 0l250 1409h410l4 -4q92 2 159.5 -34t99.5 -93t37 -130t-18.5 -140.5t-78 -127t-132.5 -89.5q-2 0 -2 -3.5t2 -3.5q94 -4 151.5 -64.5t72 -148.5t-10 -189t-84 -187t-164 -141.5t-229.5 -51.5l-22 -2h-189l35 195h236q80 0 140 49t80.5 120.5t15.5 142.5t-51 122 t-122 53v2h-213l27 143q29 0 87 3.5t64 3.5q76 10 131.5 56t73.5 106.5t13 120t-51 100t-122 43.5v2h-198l-226 -1262h-75l2 2z" />
<glyph unicode="&#xe0;" horiz-adv-x="1042" d="M66 424q20 115 75.5 207t130 147.5t161.5 84t173 23.5t156 -40q45 -20 59 -53l15 81h190l-158 -874h-186l12 63q-84 -51 -181 -69.5t-183 2t-152.5 71t-98 143.5t-13.5 214zM244 430q-16 -92 15.5 -160.5t95 -93t134 -23.5t138 47t100.5 122q14 31 26.5 113.5t12.5 109.5 q-6 70 -43 113.5t-91 58t-116.5 3.5t-118 -47t-98.5 -99.5t-55 -143.5zM333 1256l154 149l233 -301l-118 -96z" />
<glyph unicode="&#xe1;" horiz-adv-x="1042" d="M66 424q20 115 75.5 207t130 147.5t161.5 84t173 23.5t156 -40q45 -20 59 -53l15 81h190l-158 -874h-186l12 63q-84 -51 -181 -69.5t-183 2t-152.5 71t-98 143.5t-13.5 214zM244 430q-16 -92 15.5 -160.5t95 -93t134 -23.5t138 47t100.5 122q14 31 26.5 113.5t12.5 109.5 q-6 70 -43 113.5t-91 58t-116.5 3.5t-118 -47t-98.5 -99.5t-55 -143.5zM420 1108l340 301l101 -149l-355 -248z" />
<glyph unicode="&#xe2;" horiz-adv-x="1042" d="M66 424q20 115 75.5 207t130 147.5t161.5 84t173 23.5t156 -40q45 -20 59 -53l15 81h190l-158 -874h-186l12 63q-84 -51 -181 -69.5t-183 2t-152.5 71t-98 143.5t-13.5 214zM244 430q-16 -92 15.5 -160.5t95 -93t134 -23.5t138 47t100.5 122q14 31 26.5 113.5t12.5 109.5 q-6 70 -43 113.5t-91 58t-116.5 3.5t-118 -47t-98.5 -99.5t-55 -143.5zM260 1011l385 420l211 -418h-179l-79 160l-150 -160z" />
<glyph unicode="&#xe3;" horiz-adv-x="1042" d="M66 424q20 115 75.5 207t130 147.5t161.5 84t173 23.5t156 -40q45 -20 59 -53l15 81h190l-158 -874h-186l12 63q-84 -51 -181 -69.5t-183 2t-152.5 71t-98 143.5t-13.5 214zM244 430q-16 -92 15.5 -160.5t95 -93t134 -23.5t138 47t100.5 122q14 31 26.5 113.5t12.5 109.5 q-6 70 -43 113.5t-91 58t-116.5 3.5t-118 -47t-98.5 -99.5t-55 -143.5zM367 1014l2 2q-12 49 5.5 92t58.5 66.5t85 32t80.5 -10t51.5 -61.5l-90 -41q-8 29 -37 32t-50.5 -18.5t-13.5 -50.5v-2l2 -2zM560 1094l90 41q8 -29 36.5 -32t50 18.5t13.5 50.5v2l-2 2l94 39l-2 -2 q12 -49 -5 -92.5t-58 -67t-85 -31.5t-81 10.5t-51 61.5z" />
<glyph unicode="&#xe4;" horiz-adv-x="1015" d="M66 424q20 115 75.5 207t130 147.5t161.5 84t173 23.5t156 -40q45 -20 59 -53l15 81h190l-158 -874h-186l12 63q-84 -51 -181 -69.5t-183 2t-152.5 71t-98 143.5t-13.5 214zM228 1174q8 55 51 87.5t88 32.5t77 -30.5t21 -85.5q-10 -59 -53 -93t-88 -34t-75.5 33t-20.5 90 zM244 430q-16 -92 15.5 -160.5t95 -93t134 -23.5t138 47t100.5 122q14 31 26.5 113.5t12.5 109.5q-6 70 -43 113.5t-91 58t-116.5 3.5t-118 -47t-98.5 -99.5t-55 -143.5zM734 1163q8 55 51 88t88 33t76.5 -30.5t21.5 -86.5q-10 -59 -53 -92.5t-88 -33.5t-75.5 32.5 t-20.5 89.5z" />
<glyph unicode="&#xe5;" horiz-adv-x="1015" d="M66 424q20 115 75.5 207t130 147.5t161.5 84t173 23.5t156 -40q45 -20 59 -53l15 81h190l-158 -874h-186l12 63q-84 -51 -181 -69.5t-183 2t-152.5 71t-98 143.5t-13.5 214zM244 430q-16 -92 15.5 -160.5t95 -93t134 -23.5t138 47t100.5 122q14 31 26.5 113.5t12.5 109.5 q-6 70 -43 113.5t-91 58t-116.5 3.5t-118 -47t-98.5 -99.5t-55 -143.5zM446 1189q10 66 61.5 102t104.5 31.5t91 -41t28 -96.5q-10 -63 -62.5 -101t-105.5 -40t-91 36.5t-26 108.5zM540 1191q-6 -33 16.5 -46t50.5 0.5t34 48.5q6 31 -17.5 44t-51.5 -1.5t-32 -45.5z" />
<glyph unicode="&#xe8;" horiz-adv-x="962" d="M71.5 438.5q18.5 100.5 73 189.5t148.5 157.5t209 91.5q57 10 116 10q55 0 103 -8q117 -25 177 -107t63.5 -185.5t-37.5 -217.5l-668 -2q10 -86 60.5 -131.5t172.5 -55.5q25 -4 58 -1t89 22.5t101 56.5l2 2l138 -92v-2q-70 -74 -191 -125q-63 -29 -154 -39q-41 -4 -81 -4 q-55 0 -105 8q-111 23 -180.5 89.5t-91 154.5t-3 188.5zM245 1260l154 149l233 -301l-118 -96zM287 514l489 2q20 213 -186 213q-115 0 -197 -65.5t-106 -149.5z" />
<glyph unicode="&#xe9;" horiz-adv-x="962" d="M71.5 438.5q18.5 100.5 73 189.5t148.5 157.5t209 91.5q57 10 116 10q55 0 103 -8q117 -25 177 -107t63.5 -185.5t-37.5 -217.5l-668 -2q10 -86 60.5 -131.5t172.5 -55.5q25 -4 58 -1t89 22.5t101 56.5l2 2l138 -92v-2q-70 -74 -191 -125q-63 -29 -154 -39q-41 -4 -81 -4 q-55 0 -105 8q-111 23 -180.5 89.5t-91 154.5t-3 188.5zM287 514l489 2q20 213 -186 213q-115 0 -197 -65.5t-106 -149.5zM426 1108l340 301l101 -149l-355 -248z" />
<glyph unicode="&#xea;" horiz-adv-x="1024" d="M71.5 438.5q18.5 100.5 73 189.5t148.5 157.5t209 91.5q57 10 116 10q55 0 103 -8q117 -25 177 -107t63.5 -185.5t-37.5 -217.5l-668 -2q10 -86 60.5 -131.5t172.5 -55.5q25 -4 58 -1t89 22.5t101 56.5l2 2l138 -92v-2q-70 -74 -191 -125q-63 -29 -154 -39q-41 -4 -81 -4 q-55 0 -105 8q-111 23 -180.5 89.5t-91 154.5t-3 188.5zM287 514l489 2q20 213 -186 213q-115 0 -197 -65.5t-106 -149.5zM297 1011l385 420l211 -418h-179l-79 160l-150 -160z" />
<glyph unicode="&#xeb;" horiz-adv-x="1024" d="M71.5 438.5q18.5 100.5 73 189.5t148.5 157.5t209 91.5q57 10 116 10q55 0 103 -8q117 -25 177 -107t63.5 -185.5t-37.5 -217.5l-668 -2q10 -86 60.5 -131.5t172.5 -55.5q25 -4 58 -1t89 22.5t101 56.5l2 2l138 -92v-2q-70 -74 -191 -125q-63 -29 -154 -39q-41 -4 -81 -4 q-55 0 -105 8q-111 23 -180.5 89.5t-91 154.5t-3 188.5zM228 1145q8 55 51 87.5t88 32.5t77 -30.5t21 -85.5q-10 -59 -53 -93t-88 -34t-75.5 33t-20.5 90zM287 514l489 2q20 213 -186 213q-115 0 -197 -65.5t-106 -149.5zM734 1134q8 55 51 88t88 33t76.5 -30.5t21.5 -86.5 q-10 -59 -53 -92.5t-88 -33.5t-75.5 32.5t-20.5 89.5z" />
<glyph unicode="&#xec;" d="M-52 1260l154 149l233 -301l-118 -96zM47 -4l152 891h188l-156 -891h-184z" />
<glyph unicode="&#xed;" d="M47 -4l152 891h188l-156 -891h-184zM131 1108l340 301l101 -149l-355 -248z" />
<glyph unicode="&#xee;" d="M-30 1011l385 420l211 -418h-179l-79 160l-150 -160zM47 -4l152 891h188l-156 -891h-184z" />
<glyph unicode="&#xef;" d="M178 1145q8 55 51 87.5t88 32.5t77 -30.5t21 -85.5q-10 -59 -53 -93t-88 -34t-75.5 33t-20.5 90zM326 -4l152 891h188l-156 -891h-184zM684 1134q8 55 51 88t88 33t76.5 -30.5t21.5 -86.5q-10 -59 -53 -92.5t-88 -33.5t-75.5 32.5t-20.5 89.5z" />
<glyph unicode="&#xf2;" horiz-adv-x="1021" d="M45.5 445.5q22.5 115.5 90 214t187.5 164t265 65.5q147 0 242.5 -65.5t125 -164t8 -214t-88 -215t-186.5 -165t-265 -65.5q-147 0 -244.5 65.5t-127 165t-7 215zM230.5 456.5q-13.5 -73.5 4 -137t75 -105.5t145.5 -42q135 0 229 88q63 59 93 142t18.5 158t-72 128 t-162.5 53q-88 0 -161.5 -43t-114.5 -105.5t-54.5 -136zM245 1260l154 149l233 -301l-118 -96z" />
<glyph unicode="&#xf3;" horiz-adv-x="1021" d="M45.5 445.5q22.5 115.5 90 214t187.5 164t265 65.5q147 0 242.5 -65.5t125 -164t8 -214t-88 -215t-186.5 -165t-265 -65.5q-147 0 -244.5 65.5t-127 165t-7 215zM230.5 456.5q-13.5 -73.5 4 -137t75 -105.5t145.5 -42q135 0 229 88q63 59 93 142t18.5 158t-72 128 t-162.5 53q-88 0 -161.5 -43t-114.5 -105.5t-54.5 -136zM426 1108l340 301l101 -149l-355 -248z" />
<glyph unicode="&#xf4;" horiz-adv-x="1021" d="M45.5 445.5q22.5 115.5 90 214t187.5 164t265 65.5q147 0 242.5 -65.5t125 -164t8 -214t-88 -215t-186.5 -165t-265 -65.5q-147 0 -244.5 65.5t-127 165t-7 215zM230.5 456.5q-13.5 -73.5 4 -137t75 -105.5t145.5 -42q135 0 229 88q63 59 93 142t18.5 158t-72 128 t-162.5 53q-88 0 -161.5 -43t-114.5 -105.5t-54.5 -136zM267 1011l385 420l211 -418h-179l-79 160l-150 -160z" />
<glyph unicode="&#xf5;" horiz-adv-x="1021" d="M45.5 445.5q22.5 115.5 90 214t187.5 164t265 65.5q147 0 242.5 -65.5t125 -164t8 -214t-88 -215t-186.5 -165t-265 -65.5q-147 0 -244.5 65.5t-127 165t-7 215zM230.5 456.5q-13.5 -73.5 4 -137t75 -105.5t145.5 -42q135 0 229 88q63 59 93 142t18.5 158t-72 128 t-162.5 53q-88 0 -161.5 -43t-114.5 -105.5t-54.5 -136zM367 1014l2 2q-12 49 5.5 92t58.5 66.5t85 32t80.5 -10t51.5 -61.5l-90 -41q-8 29 -37 32t-50.5 -18.5t-13.5 -50.5v-2l2 -2zM560 1094l90 41q8 -29 36.5 -32t50 18.5t13.5 50.5v2l-2 2l94 39l-2 -2q12 -49 -5 -92.5 t-58 -67t-85 -31.5t-81 10.5t-51 61.5z" />
<glyph unicode="&#xf6;" horiz-adv-x="1161" d="M45.5 445.5q22.5 115.5 90 214t187.5 164t265 65.5q147 0 242.5 -65.5t125 -164t8 -214t-88 -215t-186.5 -165t-265 -65.5q-147 0 -244.5 65.5t-127 165t-7 215zM213 1176q8 55 51 87.5t88 32.5t77 -30.5t21 -85.5q-10 -59 -53 -93t-88 -34t-75.5 33t-20.5 90z M230.5 456.5q-13.5 -73.5 4 -137t75 -105.5t145.5 -42q135 0 229 88q63 59 93 142t18.5 158t-72 128t-162.5 53q-88 0 -161.5 -43t-114.5 -105.5t-54.5 -136zM719 1165q8 55 51 88t88 33t76.5 -30.5t21.5 -86.5q-10 -59 -53 -92.5t-88 -33.5t-75.5 32.5t-20.5 89.5z" />
<glyph unicode="&#xf9;" horiz-adv-x="966" d="M78 408q27 143 41 223t18 99.5t10.5 56t16.5 92.5h192q-86 -487 -86 -490q-14 -80 4.5 -130t58.5 -65.5t89 -4t97 44t87 88t49 120.5l76 437h187l-154 -879h-191l19 131q-16 -10 -58 -49t-65 -49q-72 -33 -141 -33q-178 0 -231.5 105.5t-18.5 302.5zM198 1260l154 149 l233 -301l-118 -96z" />
<glyph unicode="&#xfa;" horiz-adv-x="966" d="M78 408q27 143 41 223t18 99.5t10.5 56t16.5 92.5h192q-86 -487 -86 -490q-14 -80 4.5 -130t58.5 -65.5t89 -4t97 44t87 88t49 120.5l76 437h187l-154 -879h-191l19 131q-16 -10 -58 -49t-65 -49q-72 -33 -141 -33q-178 0 -231.5 105.5t-18.5 302.5zM387 1108l340 301 l101 -149l-355 -248z" />
<glyph unicode="&#xfb;" horiz-adv-x="966" d="M78 408q27 143 41 223t18 99.5t10.5 56t16.5 92.5h192q-86 -487 -86 -490q-14 -80 4.5 -130t58.5 -65.5t89 -4t97 44t87 88t49 120.5l76 437h187l-154 -879h-191l19 131q-16 -10 -58 -49t-65 -49q-72 -33 -141 -33q-178 0 -231.5 105.5t-18.5 302.5zM224 1011l385 420 l211 -418h-179l-79 160l-150 -160z" />
<glyph unicode="&#xfc;" horiz-adv-x="966" d="M78 408q27 143 41 223t18 99.5t10.5 56t16.5 92.5h192q-86 -487 -86 -490q-14 -80 4.5 -130t58.5 -65.5t89 -4t97 44t87 88t49 120.5l76 437h187l-154 -879h-191l19 131q-16 -10 -58 -49t-65 -49q-72 -33 -141 -33q-178 0 -231.5 105.5t-18.5 302.5zM146 1151 q8 55 51 87.5t88 32.5t77 -30.5t21 -85.5q-10 -59 -53 -93t-88 -34t-75.5 33t-20.5 90zM652 1140q8 55 51 88t88 33t76.5 -30.5t21.5 -86.5q-10 -59 -53 -92.5t-88 -33.5t-75.5 32.5t-20.5 89.5z" />
<glyph unicode="&#xfd;" horiz-adv-x="946" />
<glyph unicode="&#x2000;" horiz-adv-x="1020" />
<glyph unicode="&#x2001;" horiz-adv-x="2040" />
<glyph unicode="&#x2002;" horiz-adv-x="1020" />
<glyph unicode="&#x2003;" horiz-adv-x="2040" />
<glyph unicode="&#x2004;" horiz-adv-x="680" />
<glyph unicode="&#x2005;" horiz-adv-x="510" />
<glyph unicode="&#x2006;" horiz-adv-x="340" />
<glyph unicode="&#x2007;" horiz-adv-x="340" />
<glyph unicode="&#x2008;" horiz-adv-x="255" />
<glyph unicode="&#x2009;" horiz-adv-x="408" />
<glyph unicode="&#x200a;" horiz-adv-x="113" />
<glyph unicode="&#x2010;" horiz-adv-x="962" d="M84 444l33 185l796 2l-32 -187h-797z" />
<glyph unicode="&#x2011;" horiz-adv-x="962" d="M84 444l33 185l796 2l-32 -187h-797z" />
<glyph unicode="&#x2012;" horiz-adv-x="962" d="M84 444l33 185l796 2l-32 -187h-797z" />
<glyph unicode="&#x2013;" horiz-adv-x="1157" d="M84 444l41 185l983 2l-40 -187h-984z" />
<glyph unicode="&#x2014;" horiz-adv-x="2181" d="M84 444l82 185l1966 2l-79 -187h-1969z" />
<glyph unicode="&#x2018;" horiz-adv-x="382" d="M68 1262q10 92 73.5 169.5t122.5 96.5q-29 -33 -44 -106.5t5 -100.5q27 -22 23 -51q-2 -39 -33 -69t-64.5 -39t-60.5 15.5t-22 84.5z" />
<glyph unicode="&#x2019;" horiz-adv-x="382" d="M127 1397q-2 39 26.5 70.5t62.5 43t62.5 -11t28.5 -80.5q-4 -90 -62.5 -172t-113.5 -104q25 33 34 108.5t-13 96.5q-29 20 -25 49z" />
<glyph unicode="&#x201c;" horiz-adv-x="598" d="M68 1262q10 92 73.5 169.5t122.5 96.5q-29 -33 -44 -106.5t5 -100.5q27 -22 21 -51q0 -39 -31 -69t-65.5 -39t-60.5 15.5t-21 84.5zM317 1266q12 92 75 169.5t122 96.5q-29 -31 -42 -105.5t3 -99.5q27 -22 25 -53q-2 -37 -33 -67.5t-65.5 -39t-61.5 16t-23 82.5z" />
<glyph unicode="&#x201d;" horiz-adv-x="733" d="M127 1397q-2 39 25.5 70.5t61.5 43t63.5 -11t29.5 -80.5q-4 -90 -62.5 -172t-113.5 -104q25 33 34 108.5t-15 96.5q-27 20 -23 49zM403 1403q-2 37 27 69.5t62.5 43t62.5 -11t29 -79.5q-4 -92 -62.5 -173t-113.5 -105q25 33 34 108.5t-14 98.5q-27 20 -25 49z" />
<glyph unicode="&#x202f;" horiz-adv-x="408" />
<glyph unicode="&#x205f;" horiz-adv-x="510" />
<glyph unicode="&#x20ac;" horiz-adv-x="1464" d="M4 432l90 168h1053l-90 -168h-1053zM76 768l82 164h1155l-94 -164h-1143zM200 437q-48 263 138 552q137 215 357 335t448 110q119 -4 250 -62q71 -32 106 -59l-88 -172q-14 43 -104 82q-70 31 -197 34q-164 6 -338 -91t-276 -255q-135 -211 -94.5 -413.5t237.5 -300.5 q94 -49 209 -51.5t222.5 34.5t213.5 107l-35 -203q-104 -82 -169.5 -95.5t-186.5 -20.5t-223.5 8.5t-163.5 50.5q-258 147 -306 410z" />
<glyph unicode="&#xe000;" horiz-adv-x="880" d="M0 0v881h881v-881h-881z" />
</font>
</defs>
</svg>
